<svg width="69" height="59" viewBox="0 0 69 59" fill="none" xmlns="http://www.w3.org/2000/svg">
<path fill-rule="evenodd" clip-rule="evenodd" d="M32.4671 5.63672C33.5898 4.67668 35.4102 4.67668 36.5329 5.63672L43.125 11.2734V9.83335C43.125 8.47565 44.4122 7.37502 46 7.37502H54.625C56.2128 7.37502 57.5 8.47565 57.5 9.83335V23.5651L62.4079 27.7617C63.5307 28.7218 63.5307 30.2783 62.4079 31.2383C61.2852 32.1984 59.4648 32.1984 58.3421 31.2383L57.5 30.5183V46.7084C57.5 50.7815 53.6385 54.0834 48.875 54.0834H20.125C15.3615 54.0834 11.5 50.7815 11.5 46.7084V30.5183L10.6579 31.2383C9.53517 32.1984 7.71483 32.1984 6.59207 31.2383C5.46931 30.2783 5.46931 28.7218 6.59207 27.7617L12.341 22.8459C12.3417 22.8453 12.3424 22.8448 12.3431 22.8442L32.4671 5.63672ZM17.25 25.6016V46.7084C17.25 48.0661 18.5372 49.1667 20.125 49.1667H48.875C50.4628 49.1667 51.75 48.0661 51.75 46.7084V25.6016L43.9674 18.947C43.9672 18.9468 43.9669 18.9466 43.9667 18.9463L34.5 10.8516L17.25 25.6016ZM48.875 16.1901L51.75 18.6484V12.2917H48.875V16.1901Z" fill="black"/>
</svg>
